<svg xmlns="http://www.w3.org/2000/svg" xmlns:xlink="http://www.w3.org/1999/xlink" id="&#x5716;&#x5C64;_1" x="0px" y="0px" viewBox="0 0 150 150" style="enable-background:new 0 0 150 150;" xml:space="preserve">
<style type="text/css">
	.st0{opacity:0.2;fill:#00A9E0;enable-background:new    ;}
	.st1{fill:none;stroke:#0057B8;stroke-width:3;stroke-linejoin:round;}
	.st2{fill:#FFFFFF;}
	.st3{opacity:0.4;fill:#00A9E0;enable-background:new    ;}
	.st4{opacity:0.1;fill:#00A9E0;enable-background:new    ;}
</style>
<polygon class="st0" points="57.7,34 18.4,57.8 18.4,111.4 31.3,111.4 31.3,68.1 83,68.1 83,111.4 95.9,111.4 95.9,57.8 "></polygon>
<polygon class="st1" points="57.7,34 18.4,57.8 18.4,111.4 31.3,111.4 31.3,68.1 83,68.1 83,111.4 95.9,111.4 95.9,57.8 "></polygon>
<rect x="41.7" y="96.5" class="st1" width="15.5" height="14.5"></rect>
<rect x="57.1" y="96.5" class="st1" width="15.5" height="14.5"></rect>
<rect x="49.4" y="82" class="st1" width="15.5" height="14.5"></rect>
<rect x="78.9" y="82" class="st2" width="34.1" height="28.9"></rect>
<rect x="78.9" y="82" class="st1" width="34.1" height="28.9"></rect>
<polygon class="st1" points="131.6,110.9 113,110.9 113,89.2 125.7,89.2 131.6,100.6 "></polygon>
<polygon class="st3" points="131.6,110.9 113,110.9 113,89.2 125.7,89.2 131.6,100.6 "></polygon>
<rect x="78.9" y="82" class="st4" width="34.1" height="28.9"></rect>
<circle class="st2" cx="89.8" cy="110.3" r="5.7"></circle>
<circle class="st2" cx="118.7" cy="110.3" r="5.7"></circle>
<circle class="st1" cx="89.8" cy="110.3" r="5.7"></circle>
<circle class="st1" cx="118.7" cy="110.3" r="5.7"></circle>
</svg>